<?xml version="1.0" encoding="iso-8859-1"?>
<!-- Generator: Adobe Illustrator 19.0.0, SVG Export Plug-In . SVG Version: 6.00 Build 0)  -->
<svg version="1.1" id="Capa_1" xmlns="http://www.w3.org/2000/svg" xmlns:xlink="http://www.w3.org/1999/xlink" x="0px" y="0px"
	 viewBox="0 0 512 512" style="enable-background:new 0 0 512 512;" xml:space="preserve">
<g>
	<g transform="translate(1 1)">
		<g>
			<path style="fill:#AD1457;" d="M68.035,115.632c3.094,2.024,6.347,3.794,9.728,5.291c12.812,5.542,26.999,7.088,40.704,4.437
				l-0.085,36.523c-13.572-2.523-27.59-0.856-40.192,4.779c-3.354,1.496-6.579,3.266-9.643,5.291"/>
			<path style="fill:#AD1457;" d="M434.2,115.632c-3.094,2.024-6.347,3.794-9.728,5.291c-12.998,5.642-27.413,7.161-41.301,4.352
				l0.683,36.608c13.572-2.523,27.59-0.856,40.192,4.779c3.354,1.496,6.579,3.266,9.643,5.291"/>
		</g>
		<g>
			
				<ellipse transform="matrix(-0.0131 -0.9999 0.9999 -0.0131 -97.4367 191.5819)" style="fill:#FFEB3A;" cx="45.828" cy="143.876" rx="51.37" ry="29.96"/>
			
				<ellipse transform="matrix(-0.9999 -0.0131 0.0131 -0.9999 926.4074 293.8792)" style="fill:#FFEB3A;" cx="464.165" cy="143.91" rx="29.96" ry="51.37"/>
		</g>
		<path style="fill:#AD1457;" d="M502.467,464.987v0.085c0.033,6.873-3.978,13.124-10.24,15.957
			c-23.773,10.757-49.134,17.586-75.093,20.224v-0.085c-0.657-13.504-11.715-24.161-25.233-24.319
			c-13.519-0.158-24.823,10.237-25.796,23.722v0.085c-0.259,0.014-0.519-0.015-0.769-0.085v-0.085
			c0.452-2.161,0.681-4.363,0.683-6.571c0.03-16.619-11.935-30.836-28.316-33.643c-16.381-2.808-32.397,6.613-37.903,22.294
			c-13.49-3.827-27.449-5.751-41.472-5.717h-6.656c-13.994-0.028-27.924,1.896-41.387,5.717
			c-5.506-15.681-21.522-25.101-37.903-22.294c-16.381,2.807-28.346,17.024-28.316,33.643c0.003,2.208,0.232,4.41,0.683,6.571v0.085
			c-0.25,0.07-0.51,0.099-0.769,0.085v-0.085c-0.973-13.485-12.277-23.88-25.796-23.722s-24.577,10.816-25.233,24.319v0.085
			c-25.989-2.628-51.379-9.458-75.179-20.224c-6.262-2.833-10.273-9.084-10.24-15.957v-0.085c0.033-5.975,3.09-11.527,8.122-14.75
			c5.032-3.223,11.353-3.677,16.795-1.208c88.748,38.741,101.035-64.085,102.827-93.44L120.429,152.24
			c-2.748-37.913,10.625-75.227,36.83-102.764S220.069,6.734,258.072,7.6c37.341,1.354,72.5,17.937,97.294,45.891
			s37.062,64.841,33.948,102.077l-14.592,200.021c1.792,29.355,14.079,132.181,102.827,93.44c5.441-2.47,11.763-2.015,16.795,1.208
			C499.377,453.46,502.434,459.011,502.467,464.987z"/>
		<path style="fill:#E91E63;" d="M468.333,469.371v0.075c0.055,6-3.394,11.482-8.827,14.028
			c-20.455,9.444-42.327,15.451-64.736,17.779v-0.075c-0.341-11.805-9.935-21.238-21.743-21.379
			c-11.809-0.141-21.625,9.06-22.247,20.853v0.075c-0.224,0.012-0.448-0.013-0.663-0.075v-0.075
			c0.389-1.901,0.587-3.836,0.589-5.776c0.079-7.882-2.978-15.471-8.496-21.099c-5.519-5.628-13.047-8.832-20.929-8.908
			c-12.563,0.049-23.693,8.109-27.66,20.03c-11.618-3.363-23.656-5.055-35.752-5.026h-5.738
			c-12.071-0.024-24.083,1.669-35.678,5.026c-3.967-11.92-15.097-19.98-27.66-20.03c-7.882,0.076-15.41,3.28-20.929,8.908
			c-5.519,5.628-8.575,13.218-8.496,21.099c0.002,1.94,0.199,3.875,0.589,5.776v0.075c-0.215,0.062-0.439,0.087-0.663,0.075v-0.075
			c-0.623-11.793-10.439-20.993-22.247-20.852s-21.402,9.573-21.743,21.377v0.075c-22.434-2.32-44.332-8.327-64.809-17.779
			c-5.433-2.546-8.883-8.028-8.827-14.028v-0.075c-0.053-5.195,2.548-10.057,6.897-12.898s9.847-3.267,14.583-1.13
			c76.507,34.058,87.1-56.338,88.644-82.144l-12.8-178.766c-2.688-32.993,8.652-65.591,31.236-89.792s54.322-37.765,87.421-37.361
			c67.163,1.5,117.996,61.814,113.14,130.08l-12.579,175.84c1.545,25.806,12.137,116.202,88.644,82.144
			c4.735-2.137,10.233-1.71,14.583,1.13S468.386,464.176,468.333,469.371z"/>
		<g>
			<path style="fill:#FFEB3A;" d="M143.981,500.571v0.085c-16.934,2.106-34.051,2.307-51.029,0.597v-0.085
				c0.657-13.504,11.715-24.161,25.233-24.319S143.009,487.086,143.981,500.571z"/>
			<path style="fill:#FFEB3A;" d="M210.285,482.565c-4.805,1.336-9.533,2.931-14.165,4.779c-16.519,6.491-33.77,10.933-51.37,13.227
				v-0.085c-0.452-2.161-0.681-4.363-0.684-6.571c-0.03-16.619,11.935-30.836,28.316-33.643
				C188.763,457.464,204.779,466.885,210.285,482.565z"/>
			<path style="fill:#FFEB3A;" d="M417.133,501.168v0.085c-16.979,1.709-34.095,1.509-51.029-0.597v-0.085
				c0.973-13.485,12.277-23.88,25.796-23.722C405.419,477.007,416.477,487.664,417.133,501.168z"/>
			<path style="fill:#FFEB3A;" d="M366.019,493.915c-0.003,2.208-0.232,4.41-0.683,6.571v0.085
				c-17.627-2.293-34.908-6.735-51.455-13.227c-4.608-1.792-9.301-3.413-14.08-4.779c5.506-15.681,21.522-25.101,37.903-22.294
				C354.084,463.079,366.049,477.295,366.019,493.915z"/>
		</g>
		<path style="fill:#FFFFFF;" d="M357.4,144.048c0,56.554-45.846,76.8-102.4,76.8s-102.4-20.246-102.4-76.8
			s45.846-102.4,102.4-102.4S357.4,87.494,357.4,144.048z"/>
		<circle style="fill:#E91E63;" cx="255" cy="144.048" r="34.133"/>
		<path style="fill:#FFFFFF;" d="M331.8,246.448l-12.031,41.387c-1.473,3.092-4.438,5.204-7.841,5.586
			c-3.404,0.382-6.763-1.02-8.885-3.709L280.6,263.003l-18.261,30.464c-1.545,2.58-4.331,4.16-7.339,4.16
			c-3.007,0-5.794-1.579-7.339-4.16L229.4,263.003l-22.443,26.709c-2.122,2.689-5.481,4.091-8.885,3.709s-6.369-2.494-7.841-5.586
			L178.2,246.448h3.243c14.365,9.323,30.939,14.681,48.043,15.531c7.253,0.683,15.701,1.024,25.515,1.024s18.261-0.341,25.515-1.024
			c17.104-0.85,33.678-6.208,48.043-15.531H331.8z"/>
		<path style="fill:#527F72;" d="M356.625,230.015c-0.937-2.061-2.657-3.664-4.78-4.454c-2.122-0.79-4.472-0.701-6.529,0.246
			c-2.767,1.296-5.42,2.821-7.933,4.558l-1.017,0.696c-4.325,2.967-8.325,5.712-12.35,8.162c-13.241,8.598-28.53,13.519-44.3,14.258
			c-7.058,0.663-15.142,0.987-24.717,0.987c-9.575,0-17.658-0.325-24.742-0.992c-15.804-0.748-31.123-5.691-44.383-14.321
			c-3.917-2.383-7.917-5.129-12.242-8.096l-1.058-0.721c-2.499-1.729-5.139-3.245-7.892-4.533c-4.281-1.938-9.322-0.05-11.277,4.223
			c-1.955,4.273-0.087,9.322,4.178,11.294c1.875,0.893,3.676,1.935,5.383,3.117l1.017,0.696c4.6,3.158,8.858,6.067,12.917,8.538
			c15.492,10.038,33.348,15.831,51.783,16.8c7.592,0.717,16.2,1.063,26.317,1.063c10.117,0,18.725-0.346,26.291-1.058
			c18.401-0.96,36.228-6.732,51.7-16.738c4.167-2.537,8.425-5.446,13.025-8.604l0.975-0.671c1.721-1.191,3.536-2.241,5.425-3.142
			C356.701,239.362,358.585,234.3,356.625,230.015z"/>
	</g>
	<g>
		<path d="M500.258,444.252c-7.489-4.896-16.947-5.671-25.133-2.058c-22.525,9.85-41.092,10.479-55.167,1.837
			c-29.067-17.829-34.617-70.675-35.65-87.396l13.524-185.99c9.854-0.866,19.766,0.793,28.801,4.819
			c2.113,0.958,4.165,2.046,6.144,3.256c2.469,6.12,6.066,11.721,10.606,16.511c5.435,5.906,13.035,9.353,21.058,9.55h0.083
			c21.517-0.004,38.617-26.213,38.933-59.725c1.022-18.384-5.031-36.462-16.917-50.525c-5.435-5.906-13.035-9.353-21.058-9.55H465.4
			c-13.315,0-24.924,10.051-31.925,25.646c-2.072,1.296-4.22,2.464-6.433,3.5c-9.661,4.155-20.251,5.671-30.69,4.394
			c-5.037-26.813-17.371-51.718-35.644-71.977c-25.936-28.874-62.679-45.71-101.483-46.5
			c-70.822-1.7-132.205,48.729-144.283,118.534c-10.217,1.111-20.548-0.424-30-4.459c-2.209-1.033-4.353-2.2-6.421-3.493
			c-7.003-15.593-18.615-25.644-31.929-25.644h-0.084c-8.024,0.197-15.624,3.644-21.058,9.55
			c-11.886,14.063-17.939,32.141-16.917,50.525c0.325,33.512,17.425,59.725,38.942,59.725h0.083
			c8.021-0.198,15.618-3.644,21.05-9.55c4.506-4.745,8.085-10.292,10.551-16.353c2.027-1.279,4.131-2.433,6.299-3.455
			c9.011-4.002,18.892-5.645,28.712-4.774l13.521,185.987c-1.033,16.721-6.583,69.567-35.65,87.396
			c-14.067,8.621-32.625,8.017-55.167-1.837c-8.186-3.613-17.644-2.838-25.133,2.058C4.391,449.057-0.029,457.257,0,466.04
			c-0.005,10.204,5.917,19.483,15.175,23.775c24.79,11.117,51.211,18.164,78.245,20.87c0.055,0.004,0.099,0.036,0.155,0.039
			l0.265,0.006c7.467,0.735,15.142,1.269,23.219,1.269c28.483,0.039,56.717-5.301,83.217-15.742
			c16.688-6.544,34.459-9.884,52.383-9.846h6.683c17.925-0.038,35.696,3.302,52.383,9.846c60.07,22.745,126.757,20.425,185.1-6.442
			c9.267-4.301,15.191-13.595,15.175-23.812C512.019,457.232,507.601,449.048,500.258,444.252z M465.4,102.049h0.034
			c3.469,0.216,6.702,1.831,8.958,4.475c8.619,10.86,12.896,24.535,12,38.37c-0.233,25.25-11.708,42.821-21.875,42.821h-0.025
			c-3.469-0.217-6.702-1.831-8.958-4.475c-8.619-10.859-12.896-24.532-12-38.367C443.775,119.619,455.25,102.048,465.4,102.049
			L465.4,102.049z M403.4,136.132c8.158,0.016,16.263-1.297,23.998-3.89c-1.198,8.396-1.243,16.916-0.135,25.323
			c-9.104-3.191-18.738-4.593-28.374-4.129c0.26-5.843,0.175-11.696-0.257-17.529C400.225,135.999,401.827,136.131,403.4,136.132
			L403.4,136.132z M47.483,187.715c-10.159,0-21.642-17.571-21.883-42.825c-0.896-13.834,3.381-27.508,12-38.367
			c2.257-2.644,5.489-4.258,8.958-4.475h0.034c10.158,0,21.633,17.571,21.875,42.825c0.895,13.834-3.382,27.508-12,38.367
			C54.203,185.887,50.961,187.502,47.483,187.715z M84.738,157.558c0.555-4.261,0.821-8.555,0.796-12.852
			c-0.039-4.179-0.352-8.352-0.935-12.49c7.758,2.586,15.883,3.898,24.06,3.886c1.399,0,2.825-0.118,4.24-0.191
			c-0.345,5.832-0.33,11.68,0.044,17.51C103.362,152.978,93.787,154.383,84.738,157.558z M105.005,494.531
			c3.049-4.983,8.444-8.049,14.285-8.119c5.841-0.07,11.308,2.867,14.475,7.775C124.197,494.941,114.589,495.055,105.005,494.531z
			 M153.933,491.644c1.251-10.11,8.417-18.497,18.209-21.311c9.791-2.813,20.317,0.491,26.744,8.395
			c-1.607,0.573-3.252,1.02-4.844,1.645C181.081,485.456,167.645,489.232,153.933,491.644L153.933,491.644z M313.178,478.75
			c6.424-7.919,16.957-11.233,26.758-8.419c9.801,2.814,16.972,11.211,18.216,21.331c-13.741-2.412-27.206-6.194-40.194-11.289
			C316.388,479.756,314.765,479.316,313.178,478.75L313.178,478.75z M378.316,494.194c3.165-4.91,8.631-7.85,14.472-7.782
			c5.841,0.068,11.238,3.133,14.288,8.115C397.493,495.055,387.884,494.944,378.316,494.194L378.316,494.194z M489.709,474.298
			c-20.593,9.289-42.423,15.543-64.811,18.567c-3.381-10.647-11.815-18.93-22.521-22.119c-10.707-3.189-22.297-0.869-30.953,6.194
			c-6.657-14.44-20.829-23.945-36.716-24.624c-15.886-0.679-30.818,7.583-38.682,21.402c-12.02-2.863-24.329-4.331-36.685-4.374
			h-6.683c-12.331,0.043-24.616,1.505-36.613,4.357c-7.869-13.813-22.799-22.067-38.682-21.385
			c-15.882,0.682-30.05,10.187-36.705,24.624c-8.657-7.064-20.251-9.383-30.959-6.192c-10.708,3.191-19.141,11.478-22.519,22.129
			c-22.415-3.02-44.272-9.278-64.889-18.579c-3.213-1.507-5.253-4.747-5.225-8.296c-0.032-3.016,1.488-5.836,4.025-7.467
			c1.502-0.996,3.264-1.528,5.067-1.529c1.338,0.005,2.66,0.287,3.883,0.829c27.95,12.212,51.817,12.467,70.925,0.742
			c35.442-21.742,42.433-78.225,43.792-101.5c0.026-0.371,0.023-0.742-0.009-1.113l-14.783-203.358
			c-2.581-35.51,9.937-70.461,34.476-96.257c24.539-25.796,58.821-40.044,94.416-39.239c34.122,0.705,66.426,15.519,89.225,40.917
			c24.121,26.692,36.297,62.076,33.708,97.958L367.25,355.961c-0.032,0.371-0.035,0.745-0.009,1.117
			c1.358,23.275,8.35,79.758,43.792,101.5c19.117,11.725,42.975,11.471,70.925-0.742c2.905-1.321,6.285-1.056,8.95,0.7
			c2.546,1.64,4.067,4.476,4.025,7.504C494.951,469.576,492.911,472.799,489.709,474.298z"/>
		<path d="M256,34.115c-61.238,0.069-110.864,49.695-110.933,110.933c0,55.029,39.4,85.333,110.933,85.333
			s110.933-30.304,110.933-85.333C366.864,83.81,317.238,34.184,256,34.115z M256,213.315c-42.825,0-93.867-11.842-93.867-68.267
			c0-51.841,42.026-93.867,93.867-93.867s93.867,42.026,93.867,93.867C349.867,201.473,298.825,213.315,256,213.315z"/>
		<path d="M256,102.381c-23.564,0-42.667,19.103-42.667,42.667s19.103,42.667,42.667,42.667s42.667-19.103,42.667-42.667
			C298.639,121.495,279.553,102.409,256,102.381z M256,170.648c-14.138,0-25.6-11.462-25.6-25.6s11.462-25.6,25.6-25.6
			s25.6,11.462,25.6,25.6C281.585,159.18,270.132,170.633,256,170.648z"/>
		<path d="M259.242,137.194c-3.182-1.294-6.828-0.59-9.3,1.796c-3.313,3.34-3.298,8.73,0.032,12.052
			c3.331,3.322,8.721,3.322,12.052,0c3.331-3.322,3.345-8.712,0.032-12.052C261.228,138.236,260.275,137.629,259.242,137.194z"/>
		<path d="M346.334,226.798c-2.782,1.292-5.448,2.821-7.967,4.571c-24.158,16.55-35.183,24.1-82.367,24.1
			s-58.208-7.55-82.375-24.108c-2.517-1.746-5.18-3.272-7.958-4.563c-4.289-1.951-9.349-0.056-11.3,4.233
			c-1.951,4.289-0.056,9.349,4.233,11.3c1.884,0.883,3.687,1.927,5.392,3.121c2.485,1.702,4.844,3.307,7.157,4.858l12.076,41.504
			c2.227,5.891,7.495,10.095,13.733,10.958c6.596,1.131,13.29-1.367,17.533-6.542l14.75-17.546l12.125,20.217
			c3.086,5.138,8.641,8.28,14.634,8.279s11.547-3.145,14.632-8.283l12.129-20.215l14.596,17.37
			c3.563,4.429,8.949,6.993,14.633,6.967c1.022,0.001,2.042-0.082,3.05-0.246c6.43-0.938,11.799-5.386,13.917-11.529l11.892-40.931
			c2.321-1.555,4.683-3.163,7.175-4.869c1.698-1.191,3.497-2.232,5.375-3.113c2.775-1.262,4.665-3.909,4.959-6.943
			c0.294-3.034-1.053-5.995-3.533-7.767C352.346,225.85,349.108,225.536,346.334,226.798L346.334,226.798z M201.275,285.436
			c-0.268,0.302-0.646,0.484-1.05,0.504c-0.558,0.054-0.967-0.112-0.825,0.454l-6.92-23.812c7.126,3.144,14.598,5.436,22.26,6.828
			L201.275,285.436z M245.356,272.375c3.38,0.098,6.889,0.161,10.645,0.161c3.756,0,7.265-0.063,10.645-0.161L256,290.115
			L245.356,272.375z M312.875,285.736c-0.339,0.174-0.721,0.245-1.1,0.204c-0.48-0.044-0.917-0.293-1.2-0.683l-13.316-15.847
			c7.678-1.395,15.163-3.693,22.301-6.846L312.875,285.736z"/>
	</g>
</g>
<g>
</g>
<g>
</g>
<g>
</g>
<g>
</g>
<g>
</g>
<g>
</g>
<g>
</g>
<g>
</g>
<g>
</g>
<g>
</g>
<g>
</g>
<g>
</g>
<g>
</g>
<g>
</g>
<g>
</g>
</svg>
