<?xml version="1.0"?>
<svg xmlns="http://www.w3.org/2000/svg" height="512px" viewBox="-12 0 480 480.2694" width="512px"><path d="m456.140625 112c.039063-37.601562-28.878906-68.894531-66.367187-71.8125-37.484376-2.921875-70.898438 23.515625-76.683594 60.667969-55.144532-27.398438-119.84375-27.828125-175.351563-1.167969 3.710938-8.792969 5.875-18.160156 6.402344-27.6875 0-39.765625-32.238281-72-72-72-39.765625 0-72 32.234375-72 72-.019531.730469.011719 1.464844.085937 2.191406.800782 15.054688 10.398438 39.054688 28.558594 71.359375 6.96875 12.289063 14.523438 24.800781 21.5625 35.777344-45.792968 80.441406-30.402344 181.796875 37.207032 245.019531 67.605468 63.222656 169.761718 71.792969 246.960937 20.71875 77.195313-51.074218 109.257813-148.445312 77.511719-235.394531 20.589844-33.273437 44.113281-76.414063 44.113281-99.671875zm-55.121094 117.0625c3.972657 13.992188 6.273438 28.40625 6.847657 42.9375h-63.847657c-.523437-25.464844-4.164062-50.773438-10.839843-75.351562 3.796874-1.460938 7.546874-3.039063 11.246093-4.726563 16.28125 28.132813 32.945313 52.359375 33.128907 52.621094 1.492187 2.164062 3.953124 3.457031 6.585937 3.457031 2.628906 0 5.089844-1.292969 6.582031-3.457031.128906-.183594 1.375-2 3.417969-5.03125l.078125-.121094 2.121094-3.199219.230468-.351562c.800782-1.191406 1.601563-2.480469 2.5625-3.878906l.660157-1.023438zm-35.792969 168.867188c-1.253906 1.503906-2.519531 3-3.824218 4.460937-1.113282 1.242187-2.246094 2.449219-3.382813 3.65625-1.328125 1.402344-2.65625 2.792969-4 4.152344-1.183593 1.183593-2.402343 2.335937-3.617187 3.480469-1.382813 1.3125-2.785156 2.609374-4.207032 3.863281-1.257812 1.113281-2.527343 2.199219-3.808593 3.28125-1.457031 1.214843-2.917969 2.398437-4.40625 3.574219-1.320313 1.066406-2.652344 2.089843-4 3.066406-1.511719 1.121094-3.039063 2.21875-4.585938 3.296875-1.375.957031-2.761719 1.902343-4.160156 2.832031-1.597656 1.03125-3.160156 2.023438-4.757813 3.007812-1.425781.878907-2.859374 1.75-4.304687 2.589844-1.601563.9375-3.28125 1.839844-4.929687 2.730469-1.472657.796875-2.941407 1.597656-4.4375 2.335937-1.683594.847657-3.386719 1.644532-5.089844 2.4375-1.511719.703126-3.015625 1.417969-4.542969 2.082032-1.746094.75-3.503906 1.453125-5.265625 2.152344-1.535156.605468-3.0625 1.230468-4.617188 1.796874-1.34375.496094-2.71875.929688-4.070312 1.394532 22.679688-22.964844 39.078125-51.371094 47.625-82.496094 13.699219 5.386719 26.683594 12.449219 38.648438 21.03125-.371094.480469-.722657.976562-1.097657 1.449219-1.054687 1.292969-2.105469 2.558593-3.167969 3.824219zm-208.800781 53c-1.765625-.699219-3.527343-1.402344-5.269531-2.152344-1.53125-.664063-3.023438-1.371094-4.539062-2.074219-1.710938-.800781-3.414063-1.597656-5.101563-2.445313-1.488281-.753906-2.953125-1.546874-4.425781-2.328124-1.65625-.898438-3.3125-1.800782-4.941406-2.746094-1.441407-.800782-2.867188-1.695313-4.289063-2.574219-1.601563-.984375-3.199219-1.992187-4.800781-3.023437-1.390625-.925782-2.769532-1.863282-4.136719-2.816407-1.550781-1.082031-3.09375-2.195312-4.613281-3.320312-1.328125-.992188-2.648438-2-3.953125-3.023438-1.503907-1.1875-2.992188-2.402343-4.464844-3.632812-1.253906-1.066407-2.5-2.132813-3.734375-3.199219-1.457031-1.289062-2.882812-2.601562-4.296875-3.9375-1.183594-1.121094-2.402344-2.25-3.527344-3.410156-1.402343-1.382813-2.769531-2.8125-4.121093-4.246094-1.105469-1.175781-2.207032-2.351562-3.289063-3.550781-1.34375-1.503907-2.648437-3.050781-3.941406-4.601563-1.019531-1.214844-2.042969-2.398437-3.035157-3.671875-.382812-.496093-.75-1.007812-1.132812-1.503906 11.960938-8.582031 24.945312-15.644531 38.644531-21.03125 8.550781 31.125 24.953125 59.53125 47.632813 82.496094-1.359375-.457031-2.734375-.898438-4.078125-1.394531-1.5625-.582032-3.089844-1.207032-4.617188-1.8125zm-94.175781-251.28125.753906 1.121093.800782 1.167969.671874.992188.574219.855468.199219.292969.3125.457031c1.492188 2.164063 3.949219 3.460938 6.578125 3.464844 2.628906 0 5.089844-1.292969 6.582031-3.457031.238282-.351563 5.273438-7.648438 12.382813-18.773438 7.769531 4.132813 15.785156 7.78125 24 10.925781-6.671875 24.566407-10.3125 49.855469-10.847657 75.304688h-63.878906c1.128906-26.277344 7.886719-52.007812 19.816406-75.449219.742188 1.160157 1.441407 2.167969 2.054688 3.097657zm194.296875 84.351562.0625.097656c4.949219 8.464844 7.550781 18.097656 7.53125 27.902344-.972656 10.875-4.0625 21.449219-9.097656 31.136719-10.074219 21.847656-21.625 42.984375-34.574219 63.261719-1.019531 1.601562-2.027344 3.203124-3.089844 4.800781-3.511718 5.601562-6.6875 10.449219-9.246094 14.402343-7.035156-10.671874-18.609374-28.761718-29.425781-47.9375-6.097656-10.832031-11.238281-20.800781-15.3125-29.761718-5.746093-10.785156-9.539062-22.503906-11.199219-34.613282 0-.167968-.046874-1.128906-.0625-1.296874-.023437-9.84375 2.597657-19.511719 7.582032-28 9.972656-17.320313 28.4375-27.992188 48.425781-27.992188 4.722656.007812 9.425781.59375 14.007813 1.742188 14.53125 3.769531 26.929687 13.234374 34.398437 26.257812zm-40.40625-43.464844c-26.664063-2.808594-52.710937 9.285156-67.769531 31.464844h-28.121094c.496094-23.660156 3.765625-47.183594 9.746094-70.078125 27.914062 8.671875 56.914062 13.359375 86.144531 13.917969zm-75.722656 47.464844c-2.789063 7.695312-4.238281 15.8125-4.277344 24-.015625.742188.011719 1.484375.085937 2.222656 1.261719 10.9375 4.246094 21.605469 8.847657 31.609375-5.632813 1.441407-11.1875 3.039063-16.664063 4.800781-4.863281-20.550781-7.546875-41.554687-8-62.664062zm11.199219 72.527344c.914062 1.914062 2 4 3.007812 5.96875.714844 1.425781 1.394531 2.800781 2.144531 4.265625 2.472657 4.75 5.089844 9.644531 8 14.765625 17.335938 30.761718 36.59375 58.738281 36.800781 59.015625 1.492188 2.160156 3.945313 3.453125 6.570313 3.457031 2.636719-.003906 5.101563-1.304688 6.589844-3.480469l1.410156-2.0625v20.949219c-35.058594-4.910156-66.867187-41.796875-83.65625-97.300781 6.292969-2.105469 12.671875-3.992188 19.160156-5.578125zm80.523437 57.335937c.628906-.992187 1.269531-1.96875 1.902344-2.984375 1.320312-2.101562 2.695312-4.335937 4.113281-6.65625.335938-.542968.6875-1.132812 1.023438-1.695312 1.109374-1.816406 2.222656-3.648438 3.367187-5.597656.449219-.753907.894531-1.53125 1.351563-2.289063 1.039062-1.761719 2.082031-3.527344 3.144531-5.351563l1.601562-2.863281c.972657-1.707031 1.949219-3.417969 2.933594-5.167969.59375-1.058593 1.167969-2.113281 1.761719-3.203124.925781-1.671876 1.847656-3.355469 2.757812-5.046876.617188-1.144531 1.21875-2.273437 1.824219-3.414062.882813-1.664062 1.746094-3.320312 2.59375-4.984375.601563-1.160156 1.191406-2.320313 1.765625-3.480469.800781-1.65625 1.601562-3.296875 2.402344-4.945312.550781-1.152344 1.101562-2.289063 1.597656-3.429688.28125-.601562.59375-1.21875.867188-1.808594 16.480468 2.210938 32.722656 5.929688 48.527343 11.109376-16.664062 55.546874-48.480469 92.441406-83.535156 97.351562zm87.734375-67.199219c-15.085938-4.863281-30.546875-8.472656-46.222656-10.785156 3.757812-8.847656 5.953125-18.28125 6.488281-27.878906-.042969-8.1875-1.492187-16.304688-4.28125-24h52c-.453125 21.101562-3.128906 42.097656-7.984375 62.640625zm-52.015625-78.664062c-8.597656-12.890625-21.125-22.667969-35.71875-27.871094v-28.289062c29.226563-.554688 58.226563-5.242188 86.140625-13.917969 5.980469 22.894531 9.25 46.417969 9.746094 70.078125zm-35.71875-72.160156v-103.199219c34.71875 4.695313 64.710937 39.65625 81.550781 89.984375-26.425781 8.230469-53.882812 12.679688-81.550781 13.214844zm-16-103.199219v103.199219c-27.675781-.550782-55.128906-5.011719-81.554687-13.246094 16.839843-50.335938 46.832031-85.296875 81.554687-89.992188zm-111.753906 191.359375c.472656 22.960938 3.449219 45.804688 8.878906 68.121094-15.46875 5.980468-30.113281 13.910156-43.574219 23.597656-17.789062-27.402344-27.890625-59.078125-29.25-91.71875zm274.199219 91.71875c-13.460938-9.6875-28.105469-17.617188-43.574219-23.597656 5.429687-22.316406 8.40625-45.160156 8.878906-68.121094h63.945313c-1.359376 32.640625-11.460938 64.316406-29.25 91.71875zm5.554687-323.71875c30.910156.035156 55.964844 25.085938 56 56 0 15.542969-15.914063 49.953125-43.664063 94.398438-4.738281 7.59375-9.035156 14.226562-12.335937 19.203124-7.019531-10.664062-18.609375-28.761718-29.425781-47.945312-21.054688-37.519531-26.039063-55.710938-26.511719-64.359375 0-.183594-.039063-1.152344-.0625-1.328125.050781-30.902344 25.097656-55.933594 56-55.96875zm-71.449219 62.6875c.046875.296875.128906.632812.175782.929688.113281.679687.273437 1.40625.40625 2.117187.175781.90625.320312 1.777344.546874 2.730469.117188.511718.285157 1.070312.421876 1.597656.199218.800781.417968 1.601562.648437 2.402344.230469.800781.425781 1.597656.671875 2.398437.25.800781.535156 1.640625.800781 2.464844.261719.824219.511719 1.601563.800781 2.457031.238282.6875.488282 1.382813.742188 2.09375.375 1.03125.800781 2.121094 1.207031 3.199219.113281.273437.210938.539063.3125.800781.242188.609375.441407 1.183594.6875 1.808594.25.625.523438 1.222656.800781 1.832031.472657 1.136719.976563 2.304688 1.480469 3.480469.503907 1.175781.90625 2.128906 1.398438 3.238281.273437.617188.585937 1.265625.867187 1.890625.511719 1.117188 1.054688 2.261719 1.597656 3.414063.617188 1.320312 1.25 2.648437 1.914063 4l1.144531 2.351562c.453125.914063.941406 1.859375 1.414063 2.792969.800781 1.601562 1.679687 3.28125 2.550781 4.960938.480469.910156.921875 1.785156 1.410156 2.710937.359375.679687.75 1.394531 1.128906 2.082031.277344.527344.527344 1.023438.796876 1.597656-2.679688 1.191407-5.460938 2.160157-8.199219 3.199219-8.910157-28.5-24.550781-54.4375-45.597657-75.621093 10.328126 3.453124 20.324219 7.828124 29.871094 13.070312zm-192.855468 62.601562c-6.878907-2.640624-13.605469-5.65625-20.152344-9.03125 1.375-2.210937 2.625-4.320312 3.941406-6.488281 1.027344-1.691406 2.113281-3.425781 3.105469-5.089843l.472656-.800782c1.542969-2.582031 2.960937-5.0625 4.40625-7.574218.960937-1.664063 1.976563-3.367188 2.898437-5l.246094-.433594.113282-.183594c1.472656-2.609375 2.800781-5.085938 4.160156-7.597656.710937-1.304688 1.480468-2.675782 2.160156-3.953125l.421875-.800781c.738281-1.390626 1.371094-2.6875 2.074219-4.046876 1.136718-2.210937 2.328125-4.464843 3.367187-6.585937 12.050781-7.492187 24.9375-13.546875 38.398438-18.039063-21.050781 21.183594-36.695313 47.121094-45.613281 75.625zm-103.632813-107.960937c0-.183594 0-1.152344-.0625-1.328125 0-30.929688 25.070313-56 56-56 30.925781 0 56 25.070312 56 56-2.023437 15.027344-6.941406 29.519531-14.480469 42.671875-8.8125 17.742187-18.542968 35.007813-29.160156 51.726563-.929688 1.472656-1.855469 2.945312-2.898438 4.511718-3.582031 5.722656-6.832031 10.746094-9.453124 14.738282-1.679688-2.558594-3.617188-5.542969-5.746094-8.878907v-.050781c-7.488282-11.488281-16.113282-25.703125-23.648438-38.984375-21.09375-37.566406-26.078125-55.757813-26.550781-64.40625zm0 0" fill="#006DF0"/><path d="m384.140625 144c17.671875 0 32-14.328125 32-32s-14.328125-32-32-32c-17.675781 0-32 14.328125-32 32s14.324219 32 32 32zm0-48c8.835937 0 16 7.164062 16 16s-7.164063 16-16 16c-8.839844 0-16-7.164062-16-16s7.160156-16 16-16zm0 0" fill="#006DF0"/><path d="m208.140625 280c-17.675781 0-32 14.328125-32 32s14.324219 32 32 32c17.671875 0 32-14.328125 32-32s-14.328125-32-32-32zm10.628906 43.910156c-2.914062 2.636719-6.703125 4.09375-10.628906 4.089844-7.160156.023438-13.464844-4.710938-15.4375-11.59375-1.96875-6.882812.871094-14.238281 6.957031-18.007812 6.089844-3.769532 13.9375-3.039063 19.222656 1.792968 3.367188 3.03125 5.277344 7.355469 5.257813 11.886719-.023437 4.527344-1.976563 8.832031-5.371094 11.832031zm0 0" fill="#006DF0"/><path d="m104.140625 72c0-17.671875-14.328125-32-32-32-17.675781 0-32 14.328125-32 32s14.324219 32 32 32c17.671875 0 32-14.328125 32-32zm-48 0c0-8.835938 7.160156-16 16-16 8.835937 0 16 7.164062 16 16s-7.164063 16-16 16c-8.839844 0-16-7.164062-16-16zm0 0" fill="#006DF0"/></svg>
