<svg height="464pt" viewBox="0 0 464 464" width="464pt" xmlns="http://www.w3.org/2000/svg"><path d="m464 232c0 128.128906-103.871094 232-232 232s-232-103.871094-232-232 103.871094-232 232-232 232 103.871094 232 232zm0 0" fill="#83d8f4"/><g fill="#0b7"><path d="m408 280c-19.582031 1.339844-38.664062 6.792969-56 16-15.199219 8.398438-37.199219 20.480469-40 40-2.558594 18.078125 13.839844 24.558594 16 48 1.839844 20.078125-8.398438 36.078125-16 48-5.988281 9.246094-13.335938 17.539062-21.792969 24.601562 84.679688-22.03125 149.800781-89.769531 168.480469-175.25-16.769531-2.601562-33.800781-3.054687-50.6875-1.351562zm0 0"/><path d="m336 64c-1.105469 13.597656-3.792969 27.023438-8 40-6.480469 18.878906-12.078125 22.878906-16 40-3.199219 13.761719-6.320312 27.28125 0 40 11.535156 19.242188 34.109375 28.917969 56 24 18.558594-5.039062 20.878906-21.039062 40-24 11.261719-1.015625 22.539062 1.800781 32 8 8.292969 5.257812 15.992188 11.402344 22.960938 18.320312-7.769532-82.578124-59.003907-154.742187-134.402344-189.304687 5.265625 13.703125 7.792968 28.308594 7.441406 42.984375zm0 0"/><path d="m24 216c4.878906 32.238281 9.359375 61.519531 32 88 9.921875 11.679688 25.199219 29.441406 48 32 25.28125 2.800781 58.640625-13.359375 64-16 7.167969-4.710938 15.441406-7.46875 24-8 2.703125.042969 5.390625.417969 8 1.121094v-39.921875c-6.320312 2.5625-11.679688 4.878906-16 6.800781-31.039062 14-42.398438 22.800781-64 24-9.359375.480469-25.761719 1.441406-32-8-6.878906-10.480469 2.160156-28.398438 8-40 4.535156-8.503906 9.894531-16.542969 16-24 12.800781-17.359375 27.359375-35.121094 32-56 3.601562-15.921875 2.398438-29.28125 0-56-2.960938-33.121094-7.121094-40.558594-8-56-.757812-16.007812 2.050781-31.984375 8.230469-46.769531-52.640625 21.589843-95.550781 61.707031-120.628907 112.777343v.070313c-5.132812 28.425781-4.996093 57.546875.398438 85.921875zm0 0"/></g><path d="m206.800781 64.960938c-13.132812 10.675781-18.128906 28.460937-12.46875 44.410156 5.65625 15.953125 20.742188 26.617187 37.667969 26.628906v-80c-9.179688-.003906-18.082031 3.160156-25.199219 8.960938zm0 0" fill="#ff5023"/><path d="m232 56v80c2.6875.019531 5.371094-.25 8-.800781 20.140625-4.089844 33.902344-22.773438 31.835938-43.21875-2.0625-20.445313-19.285157-36-39.835938-35.980469zm0 0" fill="#ff633b"/><path d="m184 168 16 24v201.359375l-16 22.640625h48v-248zm0 0" fill="#ff5023"/><path d="m264 393.359375v-225.359375h-32v248h48zm0 0" fill="#ff633b"/></svg>