<?xml version="1.0" encoding="iso-8859-1"?>
<!-- Generator: Adobe Illustrator 19.0.0, SVG Export Plug-In . SVG Version: 6.00 Build 0)  -->
<svg version="1.1" id="Layer_1" xmlns="http://www.w3.org/2000/svg" xmlns:xlink="http://www.w3.org/1999/xlink" x="0px" y="0px"
	 viewBox="0 0 512 512" style="enable-background:new 0 0 512 512;" xml:space="preserve">
<g>
	<polygon style="fill:#FDC00F;" points="53.51,155.648 134.57,155.648 134.57,499.735 0,499.735 0,155.648 	"/>
	<polygon style="fill:#FDC00F;" points="240.765,223.412 326.958,223.412 326.958,499.735 192.388,499.735 192.388,223.412 	"/>
	<rect x="377.425" y="294.566" style="fill:#FDC00F;" width="134.574" height="205.168"/>
</g>
<polygon style="opacity:0.1;enable-background:new    ;" points="93.98,155.648 93.98,459.145 0,459.145 0,499.735 134.57,499.735 
	134.57,155.648 "/>
<polygon style="opacity:0.1;enable-background:new    ;" points="286.368,223.412 286.368,459.286 192.388,459.286 192.388,499.877 
	326.958,499.877 326.958,223.412 "/>
<polygon style="opacity:0.1;enable-background:new    ;" points="471.41,294.564 471.41,459.145 377.43,459.145 377.43,499.735 
	512,499.735 512,294.564 "/>
<g>
	<path style="fill:#6C489C;" d="M63.555,215.293l-3.28,3.279c-0.819,0.717-1.742,0.923-2.46,0.923c-2.563,0-4.305-2.665-4.305-5.329
		c0-1.846,0.923-3.794,2.563-4.818l12.094-9.224c0.717-0.614,1.64-1.025,2.768-1.025c2.768,0,5.945,1.639,5.945,4.305v66.62
		c0,2.768-3.382,4.202-6.661,4.202c-3.382,0-6.662-1.435-6.662-4.202v-54.73H63.555z"/>
	<path style="fill:#6C489C;" d="M259.775,274.533c11.889,0,22.959,7.79,22.959,20.806c0,22.139-32.491,29.313-32.491,39.973v2.458
		h28.493c2.256,0,4.202,2.665,4.202,5.74s-1.947,5.945-4.202,5.945h-36.487c-2.356,0-5.842-1.64-5.842-4.202v-9.941
		c0-16.4,33.003-25.111,33.003-39.564c0-4.202-2.768-9.122-9.532-9.122c-5.022,0-9.122,2.665-9.122,9.019
		c0,2.461-2.562,4.92-6.969,4.92c-3.485,0-6.047-1.64-6.047-7.176C237.739,281.709,248.399,274.533,259.775,274.533z"/>
	<path style="fill:#6C489C;" d="M455.476,399.177v-1.947c0-7.584-4.715-9.736-11.274-9.736c-2.972,0-3.997-2.563-3.997-5.227
		c0-2.562,1.025-5.226,3.997-5.226c5.125,0,9.429-1.23,9.429-10.044c0-6.765-3.485-9.02-9.019-9.02
		c-6.661,0-9.122,2.768-9.122,6.866c0,3.075-1.435,5.125-6.354,5.125c-5.945,0-6.866-1.435-6.866-5.74
		c0-7.277,5.124-17.835,22.447-17.835c12.401,0,21.626,4.715,21.626,18.347c0,8.097-2.972,14.656-7.994,17.014
		c6.047,2.356,10.455,6.968,10.455,15.475v1.947c0,16.503-11.069,22.754-24.599,22.754c-16.809,0-23.573-10.352-23.573-18.653
		c0-4.101,1.742-5.227,6.354-5.227c5.433,0,6.867,1.436,6.867,4.715c0,4.612,4.1,7.483,10.66,7.483
		C452.197,410.247,455.476,406.967,455.476,399.177z"/>
</g>
<path style="fill:#EAA02B;" d="M444.715,265.052c-4.544,0-8.228-3.683-8.228-8.228v-86.803H259.673
	c-4.544,0-8.228-3.683-8.228-8.228V28.579H85.107v83.645c0,4.545-3.684,8.228-8.228,8.228s-8.228-3.683-8.228-8.228V20.351
	c0-4.545,3.684-8.228,8.228-8.228h182.794c4.544,0,8.228,3.683,8.228,8.228v133.216h176.814c4.544,0,8.228,3.683,8.228,8.228v95.031
	C452.943,261.369,449.259,265.052,444.715,265.052z"/>
<g>
</g>
<g>
</g>
<g>
</g>
<g>
</g>
<g>
</g>
<g>
</g>
<g>
</g>
<g>
</g>
<g>
</g>
<g>
</g>
<g>
</g>
<g>
</g>
<g>
</g>
<g>
</g>
<g>
</g>
</svg>
